<svg xmlns="http://www.w3.org/2000/svg" width="1080" height="804" viewBox="0 0 1080 804" font-family="system-ui, sans-serif">
<rect width="1080" height="804" fill="#fcfcfb"/>
<text x="16.0" y="28.0" font-size="15" fill="#0b0b0b" text-anchor="start" font-weight="bold">gzip tools, compress and decompress</text>
<text x="1064.0" y="28.0" font-size="12" fill="#0b0b0b" text-anchor="end" font-weight="normal">gzip</text>
<circle cx="1023.2" cy="24" r="5" fill="#4a3aa7"/>
<text x="1003.2" y="28.0" font-size="12" fill="#0b0b0b" text-anchor="end" font-weight="normal">minigzip</text>
<circle cx="933.6" cy="24" r="5" fill="#008300"/>
<text x="913.6" y="28.0" font-size="12" fill="#0b0b0b" text-anchor="end" font-weight="normal">gzip-ng</text>
<circle cx="851.2" cy="24" r="5" fill="#e87ba4"/>
<text x="831.2" y="28.0" font-size="12" fill="#0b0b0b" text-anchor="end" font-weight="normal">migz</text>
<circle cx="790.4" cy="24" r="5" fill="#eda100"/>
<text x="770.4" y="28.0" font-size="12" fill="#0b0b0b" text-anchor="end" font-weight="normal">bgzip -@</text>
<circle cx="700.8" cy="24" r="5" fill="#1baf7a"/>
<text x="680.8" y="28.0" font-size="12" fill="#0b0b0b" text-anchor="end" font-weight="normal">pigz -p</text>
<circle cx="618.4" cy="24" r="5" fill="#eb6834"/>
<text x="598.4" y="28.0" font-size="12" fill="#0b0b0b" text-anchor="end" font-weight="normal">gzip-ng -p</text>
<circle cx="514.4" cy="24" r="5" fill="#2a78d6"/>
<text x="812.0" y="54.0" font-size="12" fill="#0b0b0b" text-anchor="start" font-weight="normal">decompress</text>
<text x="812.0" y="76.0" font-size="10" fill="#0b0b0b" text-anchor="start" font-weight="normal">gzip-ng -p 10 ← migz</text>
<text x="1032.0" y="76.0" font-size="10" fill="#0b0b0b" text-anchor="end" font-weight="normal">6.91 GB/s</text>
<path d="M812 81 h216.0 a4 4 0 0 1 4 4 v4 a4 4 0 0 1 -4 4 h-216.0 z" fill="#2a78d6"><title>gzip-ng -p 10 ← migz - 6.91 GB/s, 0.04 s, cv 20.8%</title></path>
<text x="812.0" y="110.0" font-size="10" fill="#0b0b0b" text-anchor="start" font-weight="normal">gzip-ng -p 10</text>
<text x="1032.0" y="110.0" font-size="10" fill="#0b0b0b" text-anchor="end" font-weight="normal">6.69 GB/s</text>
<path d="M812 115 h209.0 a4 4 0 0 1 4 4 v4 a4 4 0 0 1 -4 4 h-209.0 z" fill="#2a78d6"><title>gzip-ng -p 10 - 6.69 GB/s, 0.04 s, cv 23.3%</title></path>
<text x="812.0" y="144.0" font-size="10" fill="#0b0b0b" text-anchor="start" font-weight="normal">gzip-ng -p 10 ← bgzip -@ 10</text>
<text x="1032.0" y="144.0" font-size="10" fill="#0b0b0b" text-anchor="end" font-weight="normal">6.32 GB/s</text>
<path d="M812 149 h197.2 a4 4 0 0 1 4 4 v4 a4 4 0 0 1 -4 4 h-197.2 z" fill="#2a78d6"><title>gzip-ng -p 10 ← bgzip -@ 10 - 6.32 GB/s, 0.04 s, cv 11.1%</title></path>
<text x="812.0" y="178.0" font-size="10" fill="#0b0b0b" text-anchor="start" font-weight="normal">bgzip -@ 10</text>
<text x="1032.0" y="178.0" font-size="10" fill="#0b0b0b" text-anchor="end" font-weight="normal">5.12 GB/s</text>
<path d="M812 183 h159.1 a4 4 0 0 1 4 4 v4 a4 4 0 0 1 -4 4 h-159.1 z" fill="#1baf7a"><title>bgzip -@ 10 - 5.12 GB/s, 0.05 s, cv 9.5%</title></path>
<text x="812.0" y="212.0" font-size="10" fill="#0b0b0b" text-anchor="start" font-weight="normal">migz</text>
<text x="1032.0" y="212.0" font-size="10" fill="#0b0b0b" text-anchor="end" font-weight="normal">2.66 GB/s</text>
<path d="M812 217 h80.6 a4 4 0 0 1 4 4 v4 a4 4 0 0 1 -4 4 h-80.6 z" fill="#eda100"><title>migz - 2.66 GB/s, 0.10 s, cv 14.1%</title></path>
<text x="812.0" y="246.0" font-size="10" fill="#0b0b0b" text-anchor="start" font-weight="normal">gzip-ng</text>
<text x="1032.0" y="246.0" font-size="10" fill="#0b0b0b" text-anchor="end" font-weight="normal">1.26 GB/s</text>
<path d="M812 251 h36.2 a4 4 0 0 1 4 4 v4 a4 4 0 0 1 -4 4 h-36.2 z" fill="#e87ba4"><title>gzip-ng - 1.26 GB/s, 0.21 s, cv 0.7%</title></path>
<text x="812.0" y="280.0" font-size="10" fill="#0b0b0b" text-anchor="start" font-weight="normal">minigzip</text>
<text x="1032.0" y="280.0" font-size="10" fill="#0b0b0b" text-anchor="end" font-weight="normal">1.25 GB/s</text>
<path d="M812 285 h35.8 a4 4 0 0 1 4 4 v4 a4 4 0 0 1 -4 4 h-35.8 z" fill="#008300"><title>minigzip - 1.25 GB/s, 0.21 s, cv 1.0%</title></path>
<text x="812.0" y="314.0" font-size="10" fill="#0b0b0b" text-anchor="start" font-weight="normal">pigz -p 10</text>
<text x="1032.0" y="314.0" font-size="10" fill="#0b0b0b" text-anchor="end" font-weight="normal">1.08 GB/s</text>
<path d="M812 319 h30.5 a4 4 0 0 1 4 4 v4 a4 4 0 0 1 -4 4 h-30.5 z" fill="#eb6834"><title>pigz -p 10 - 1.08 GB/s, 0.25 s, cv 1.0%</title></path>
<text x="812.0" y="348.0" font-size="10" fill="#0b0b0b" text-anchor="start" font-weight="normal">gzip</text>
<text x="1032.0" y="348.0" font-size="10" fill="#0b0b0b" text-anchor="end" font-weight="normal">330 MB/s</text>
<path d="M812 353 h6.5 a4 4 0 0 1 4 4 v4 a4 4 0 0 1 -4 4 h-6.5 z" fill="#4a3aa7"><title>gzip - 330 MB/s, 0.81 s, cv 0.0%</title></path>
<g opacity="0.35"><line x1="812.0" y1="384.0" x2="870.0" y2="384.0" stroke="#52514e" stroke-width="2"/><polygon points="876.0,384.0 867.0,388.0 867.0,380.0" fill="#52514e"/><text x="844.0" y="377.0" font-size="11" fill="#52514e" text-anchor="middle" transform="rotate(0.0 844.0 384.0)">better</text></g>
<line x1="78.0" y1="419.9" x2="718.0" y2="419.9" stroke="#e7e6e2" stroke-width="1"/>
<text x="70.0" y="423.9" font-size="11" fill="#52514e" text-anchor="end" font-weight="normal">20 MB/s</text>
<line x1="78.0" y1="352.5" x2="718.0" y2="352.5" stroke="#e7e6e2" stroke-width="1"/>
<text x="70.0" y="356.5" font-size="11" fill="#52514e" text-anchor="end" font-weight="normal">50 MB/s</text>
<line x1="78.0" y1="301.5" x2="718.0" y2="301.5" stroke="#e7e6e2" stroke-width="1"/>
<text x="70.0" y="305.5" font-size="11" fill="#52514e" text-anchor="end" font-weight="normal">100 MB/s</text>
<line x1="78.0" y1="250.5" x2="718.0" y2="250.5" stroke="#e7e6e2" stroke-width="1"/>
<text x="70.0" y="254.5" font-size="11" fill="#52514e" text-anchor="end" font-weight="normal">200 MB/s</text>
<line x1="78.0" y1="183.1" x2="718.0" y2="183.1" stroke="#e7e6e2" stroke-width="1"/>
<text x="70.0" y="187.1" font-size="11" fill="#52514e" text-anchor="end" font-weight="normal">500 MB/s</text>
<line x1="78.0" y1="132.1" x2="718.0" y2="132.1" stroke="#e7e6e2" stroke-width="1"/>
<text x="70.0" y="136.1" font-size="11" fill="#52514e" text-anchor="end" font-weight="normal">1.00 GB/s</text>
<line x1="78.0" y1="81.1" x2="718.0" y2="81.1" stroke="#e7e6e2" stroke-width="1"/>
<text x="70.0" y="85.1" font-size="11" fill="#52514e" text-anchor="end" font-weight="normal">2.00 GB/s</text>
<line x1="144.3" y1="76.0" x2="144.3" y2="436.0" stroke="#e7e6e2" stroke-width="1"/>
<text x="144.3" y="454.0" font-size="11" fill="#52514e" text-anchor="middle" font-weight="normal">3</text>
<line x1="240.3" y1="76.0" x2="240.3" y2="436.0" stroke="#e7e6e2" stroke-width="1"/>
<text x="240.3" y="454.0" font-size="11" fill="#52514e" text-anchor="middle" font-weight="normal">3.3</text>
<line x1="336.3" y1="76.0" x2="336.3" y2="436.0" stroke="#e7e6e2" stroke-width="1"/>
<text x="336.3" y="454.0" font-size="11" fill="#52514e" text-anchor="middle" font-weight="normal">3.6</text>
<line x1="432.3" y1="76.0" x2="432.3" y2="436.0" stroke="#e7e6e2" stroke-width="1"/>
<text x="432.3" y="454.0" font-size="11" fill="#52514e" text-anchor="middle" font-weight="normal">3.9</text>
<line x1="528.4" y1="76.0" x2="528.4" y2="436.0" stroke="#e7e6e2" stroke-width="1"/>
<text x="528.4" y="454.0" font-size="11" fill="#52514e" text-anchor="middle" font-weight="normal">4.2</text>
<line x1="624.4" y1="76.0" x2="624.4" y2="436.0" stroke="#e7e6e2" stroke-width="1"/>
<text x="624.4" y="454.0" font-size="11" fill="#52514e" text-anchor="middle" font-weight="normal">4.5</text>
<line x1="78.0" y1="436.0" x2="718.0" y2="436.0" stroke="#52514e" stroke-width="1"/>
<text x="398.0" y="476.0" font-size="12" fill="#52514e" text-anchor="middle" font-weight="normal">compression ratio</text>
<text x="78.0" y="54.0" font-size="12" fill="#0b0b0b" text-anchor="start" font-weight="normal">compress</text>
<g opacity="0.35"><line x1="590.0" y1="158.0" x2="673.0" y2="103.3" stroke="#52514e" stroke-width="2"/><polygon points="678.0,100.0 672.7,108.3 668.3,101.6" fill="#52514e"/><text x="634.0" y="122.0" font-size="11" fill="#52514e" text-anchor="middle" transform="rotate(-33.4 634.0 129.0)">better</text></g>
<path d="M115.2,110.6 L459.7,156.7 L591.5,161.4 L569.2,179.4" fill="none" stroke="#2a78d6" stroke-width="2" stroke-opacity="0.65"/>
<g stroke="#2a78d6" stroke-opacity="0.7" stroke-width="1.5"><line x1="115.2" y1="114.2" x2="115.2" y2="107.1"/><line x1="112.2" y1="114.2" x2="118.2" y2="114.2"/><line x1="112.2" y1="107.1" x2="118.2" y2="107.1"/></g>
<g><circle cx="115.2" cy="110.6" r="5.5" fill="#2a78d6" stroke="#fcfcfb" stroke-width="2"/><title>gzip-ng -p 10 level:1 - 1.34 GB/s, ratio 2.909, cv 4.8%</title></g>
<g stroke="#2a78d6" stroke-opacity="0.7" stroke-width="1.5"><line x1="459.7" y1="160.6" x2="459.7" y2="153.0"/><line x1="456.7" y1="160.6" x2="462.7" y2="160.6"/><line x1="456.7" y1="153.0" x2="462.7" y2="153.0"/></g>
<g><circle cx="459.7" cy="156.7" r="5.5" fill="#2a78d6" stroke="#fcfcfb" stroke-width="2"/><title>gzip-ng -p 10 level:3 - 716 MB/s, ratio 3.985, cv 5.2%</title></g>
<g stroke="#2a78d6" stroke-opacity="0.7" stroke-width="1.5"><line x1="591.5" y1="162.7" x2="591.5" y2="160.2"/><line x1="588.5" y1="162.7" x2="594.5" y2="162.7"/><line x1="588.5" y1="160.2" x2="594.5" y2="160.2"/></g>
<g><circle cx="591.5" cy="161.4" r="5.5" fill="#2a78d6" stroke="#fcfcfb" stroke-width="2"/><title>gzip-ng -p 10 level:6 - 671 MB/s, ratio 4.397, cv 1.7%</title></g>
<g stroke="#2a78d6" stroke-opacity="0.7" stroke-width="1.5"><line x1="569.2" y1="180.2" x2="569.2" y2="178.7"/><line x1="566.2" y1="180.2" x2="572.2" y2="180.2"/><line x1="566.2" y1="178.7" x2="572.2" y2="178.7"/></g>
<g><circle cx="569.2" cy="179.4" r="5.5" fill="#2a78d6" stroke="#fcfcfb" stroke-width="2"/><title>gzip-ng -p 10 level:9 - 526 MB/s, ratio 4.328, cv 1.0%</title></g>
<path d="M317.2,161.5 L489.7,187.1 L642.3,199.1 L659.0,244.8" fill="none" stroke="#eb6834" stroke-width="2" stroke-opacity="0.65"/>
<g stroke="#eb6834" stroke-opacity="0.7" stroke-width="1.5"><line x1="317.2" y1="165.9" x2="317.2" y2="157.4"/><line x1="314.2" y1="165.9" x2="320.2" y2="165.9"/><line x1="314.2" y1="157.4" x2="320.2" y2="157.4"/></g>
<g><circle cx="317.2" cy="161.5" r="5.5" fill="#eb6834" stroke="#fcfcfb" stroke-width="2"/><title>pigz -p 10 level:1 - 670 MB/s, ratio 3.540, cv 5.8%</title></g>
<g stroke="#eb6834" stroke-opacity="0.7" stroke-width="1.5"><line x1="489.7" y1="208.5" x2="489.7" y2="170.5"/><line x1="486.7" y1="208.5" x2="492.7" y2="208.5"/><line x1="486.7" y1="170.5" x2="492.7" y2="170.5"/></g>
<g><circle cx="489.7" cy="187.1" r="5.5" fill="#eb6834" stroke="#fcfcfb" stroke-width="2"/><title>pigz -p 10 level:3 - 474 MB/s, ratio 4.079, cv 25.3%</title></g>
<g stroke="#eb6834" stroke-opacity="0.7" stroke-width="1.5"><line x1="642.3" y1="199.2" x2="642.3" y2="198.9"/><line x1="639.3" y1="199.2" x2="645.3" y2="199.2"/><line x1="639.3" y1="198.9" x2="645.3" y2="198.9"/></g>
<g><circle cx="642.3" cy="199.1" r="5.5" fill="#eb6834" stroke="#fcfcfb" stroke-width="2"/><title>pigz -p 10 level:6 - 403 MB/s, ratio 4.556, cv 0.2%</title></g>
<g stroke="#eb6834" stroke-opacity="0.7" stroke-width="1.5"><line x1="659.0" y1="245.4" x2="659.0" y2="244.2"/><line x1="656.0" y1="245.4" x2="662.0" y2="245.4"/><line x1="656.0" y1="244.2" x2="662.0" y2="244.2"/></g>
<g><circle cx="659.0" cy="244.8" r="5.5" fill="#eb6834" stroke="#fcfcfb" stroke-width="2"/><title>pigz -p 10 level:9 - 216 MB/s, ratio 4.608, cv 0.8%</title></g>
<path d="M289.9,123.3 L481.8,154.0 L539.2,174.4 L592.1,401.4" fill="none" stroke="#1baf7a" stroke-width="2" stroke-opacity="0.65"/>
<g stroke="#1baf7a" stroke-opacity="0.7" stroke-width="1.5"><line x1="289.9" y1="129.8" x2="289.9" y2="117.4"/><line x1="286.9" y1="129.8" x2="292.9" y2="129.8"/><line x1="286.9" y1="117.4" x2="292.9" y2="117.4"/></g>
<g><circle cx="289.9" cy="123.3" r="5.5" fill="#1baf7a" stroke="#fcfcfb" stroke-width="2"/><title>bgzip -@ 10 level:1 - 1.13 GB/s, ratio 3.455, cv 8.4%</title></g>
<g stroke="#1baf7a" stroke-opacity="0.7" stroke-width="1.5"><line x1="481.8" y1="162.1" x2="481.8" y2="146.7"/><line x1="478.8" y1="162.1" x2="484.8" y2="162.1"/><line x1="478.8" y1="146.7" x2="484.8" y2="146.7"/></g>
<g><circle cx="481.8" cy="154.0" r="5.5" fill="#1baf7a" stroke="#fcfcfb" stroke-width="2"/><title>bgzip -@ 10 level:3 - 742 MB/s, ratio 4.054, cv 10.4%</title></g>
<g stroke="#1baf7a" stroke-opacity="0.7" stroke-width="1.5"><line x1="539.2" y1="178.3" x2="539.2" y2="170.7"/><line x1="536.2" y1="178.3" x2="542.2" y2="178.3"/><line x1="536.2" y1="170.7" x2="542.2" y2="170.7"/></g>
<g><circle cx="539.2" cy="174.4" r="5.5" fill="#1baf7a" stroke="#fcfcfb" stroke-width="2"/><title>bgzip -@ 10 level:6 - 563 MB/s, ratio 4.234, cv 5.2%</title></g>
<g stroke="#1baf7a" stroke-opacity="0.7" stroke-width="1.5"><line x1="592.1" y1="403.9" x2="592.1" y2="399.1"/><line x1="589.1" y1="403.9" x2="595.1" y2="403.9"/><line x1="589.1" y1="399.1" x2="595.1" y2="399.1"/></g>
<g><circle cx="592.1" cy="401.4" r="5.5" fill="#1baf7a" stroke="#fcfcfb" stroke-width="2"/><title>bgzip -@ 10 level:9 - 26 MB/s, ratio 4.399, cv 3.3%</title></g>
<path d="M306.0,177.9 L472.0,187.9 L623.8,209.0 L639.9,255.8" fill="none" stroke="#eda100" stroke-width="2" stroke-opacity="0.65"/>
<g stroke="#eda100" stroke-opacity="0.7" stroke-width="1.5"><line x1="306.0" y1="181.5" x2="306.0" y2="174.6"/><line x1="303.0" y1="181.5" x2="309.0" y2="181.5"/><line x1="303.0" y1="174.6" x2="309.0" y2="174.6"/></g>
<g><circle cx="306.0" cy="177.9" r="5.5" fill="#eda100" stroke="#fcfcfb" stroke-width="2"/><title>migz level:1 - 536 MB/s, ratio 3.505, cv 4.7%</title></g>
<g stroke="#eda100" stroke-opacity="0.7" stroke-width="1.5"><line x1="472.0" y1="200.6" x2="472.0" y2="177.1"/><line x1="469.0" y1="200.6" x2="475.0" y2="200.6"/><line x1="469.0" y1="177.1" x2="475.0" y2="177.1"/></g>
<g><circle cx="472.0" cy="187.9" r="5.5" fill="#eda100" stroke="#fcfcfb" stroke-width="2"/><title>migz level:3 - 468 MB/s, ratio 4.024, cv 15.9%</title></g>
<g stroke="#eda100" stroke-opacity="0.7" stroke-width="1.5"><line x1="623.8" y1="211.8" x2="623.8" y2="206.4"/><line x1="620.8" y1="211.8" x2="626.8" y2="211.8"/><line x1="620.8" y1="206.4" x2="626.8" y2="206.4"/></g>
<g><circle cx="623.8" cy="209.0" r="5.5" fill="#eda100" stroke="#fcfcfb" stroke-width="2"/><title>migz level:6 - 351 MB/s, ratio 4.498, cv 3.7%</title></g>
<g stroke="#eda100" stroke-opacity="0.7" stroke-width="1.5"><line x1="639.9" y1="260.6" x2="639.9" y2="251.2"/><line x1="636.9" y1="260.6" x2="642.9" y2="260.6"/><line x1="636.9" y1="251.2" x2="642.9" y2="251.2"/></g>
<g><circle cx="639.9" cy="255.8" r="5.5" fill="#eda100" stroke="#fcfcfb" stroke-width="2"/><title>migz level:9 - 186 MB/s, ratio 4.548, cv 6.4%</title></g>
<path d="M134.8,216.0 L496.4,262.8 L641.4,284.7 L617.7,315.6" fill="none" stroke="#e87ba4" stroke-width="2" stroke-opacity="0.65"/>
<g stroke="#e87ba4" stroke-opacity="0.7" stroke-width="1.5"><line x1="134.8" y1="216.5" x2="134.8" y2="215.4"/><line x1="131.8" y1="216.5" x2="137.8" y2="216.5"/><line x1="131.8" y1="215.4" x2="137.8" y2="215.4"/></g>
<g><circle cx="134.8" cy="216.0" r="5.5" fill="#e87ba4" stroke="#fcfcfb" stroke-width="2"/><title>gzip-ng level:1 - 320 MB/s, ratio 2.970, cv 0.7%</title></g>
<g stroke="#e87ba4" stroke-opacity="0.7" stroke-width="1.5"><line x1="496.4" y1="263.3" x2="496.4" y2="262.3"/><line x1="493.4" y1="263.3" x2="499.4" y2="263.3"/><line x1="493.4" y1="262.3" x2="499.4" y2="262.3"/></g>
<g><circle cx="496.4" cy="262.8" r="5.5" fill="#e87ba4" stroke="#fcfcfb" stroke-width="2"/><title>gzip-ng level:3 - 169 MB/s, ratio 4.100, cv 0.6%</title></g>
<g stroke="#e87ba4" stroke-opacity="0.7" stroke-width="1.5"><line x1="641.4" y1="285.4" x2="641.4" y2="284.0"/><line x1="638.4" y1="285.4" x2="644.4" y2="285.4"/><line x1="638.4" y1="284.0" x2="644.4" y2="284.0"/></g>
<g><circle cx="641.4" cy="284.7" r="5.5" fill="#e87ba4" stroke="#fcfcfb" stroke-width="2"/><title>gzip-ng level:6 - 126 MB/s, ratio 4.553, cv 1.0%</title></g>
<g stroke="#e87ba4" stroke-opacity="0.7" stroke-width="1.5"><line x1="617.7" y1="315.8" x2="617.7" y2="315.5"/><line x1="614.7" y1="315.8" x2="620.7" y2="315.8"/><line x1="614.7" y1="315.5" x2="620.7" y2="315.5"/></g>
<g><circle cx="617.7" cy="315.6" r="5.5" fill="#e87ba4" stroke="#fcfcfb" stroke-width="2"/><title>gzip-ng level:9 - 83 MB/s, ratio 4.479, cv 0.2%</title></g>
<path d="M134.8,215.5 L496.4,263.6 L641.4,285.6 L617.7,315.1" fill="none" stroke="#008300" stroke-width="2" stroke-opacity="0.65"/>
<g stroke="#008300" stroke-opacity="0.7" stroke-width="1.5"><line x1="134.8" y1="216.3" x2="134.8" y2="214.8"/><line x1="131.8" y1="216.3" x2="137.8" y2="216.3"/><line x1="131.8" y1="214.8" x2="137.8" y2="214.8"/></g>
<g><circle cx="134.8" cy="215.5" r="5.5" fill="#008300" stroke="#fcfcfb" stroke-width="2"/><title>minigzip level:1 - 322 MB/s, ratio 2.970, cv 1.0%</title></g>
<g stroke="#008300" stroke-opacity="0.7" stroke-width="1.5"><line x1="496.4" y1="263.8" x2="496.4" y2="263.3"/><line x1="493.4" y1="263.8" x2="499.4" y2="263.8"/><line x1="493.4" y1="263.3" x2="499.4" y2="263.3"/></g>
<g><circle cx="496.4" cy="263.6" r="5.5" fill="#008300" stroke="#fcfcfb" stroke-width="2"/><title>minigzip level:3 - 168 MB/s, ratio 4.100, cv 0.4%</title></g>
<g stroke="#008300" stroke-opacity="0.7" stroke-width="1.5"><line x1="641.4" y1="289.9" x2="641.4" y2="281.5"/><line x1="638.4" y1="289.9" x2="644.4" y2="289.9"/><line x1="638.4" y1="281.5" x2="644.4" y2="281.5"/></g>
<g><circle cx="641.4" cy="285.6" r="5.5" fill="#008300" stroke="#fcfcfb" stroke-width="2"/><title>minigzip level:6 - 124 MB/s, ratio 4.553, cv 5.7%</title></g>
<g stroke="#008300" stroke-opacity="0.7" stroke-width="1.5"><line x1="617.7" y1="315.3" x2="617.7" y2="314.9"/><line x1="614.7" y1="315.3" x2="620.7" y2="315.3"/><line x1="614.7" y1="314.9" x2="620.7" y2="314.9"/></g>
<g><circle cx="617.7" cy="315.1" r="5.5" fill="#008300" stroke="#fcfcfb" stroke-width="2"/><title>minigzip level:9 - 83 MB/s, ratio 4.479, cv 0.3%</title></g>
<path d="M289.9,286.4 L463.1,289.3 L630.0,327.4 L647.6,385.4" fill="none" stroke="#4a3aa7" stroke-width="2" stroke-opacity="0.65"/>
<g stroke="#4a3aa7" stroke-opacity="0.7" stroke-width="1.5"><line x1="289.9" y1="286.5" x2="289.9" y2="286.2"/><line x1="286.9" y1="286.5" x2="292.9" y2="286.5"/><line x1="286.9" y1="286.2" x2="292.9" y2="286.2"/></g>
<g><circle cx="289.9" cy="286.4" r="5.5" fill="#4a3aa7" stroke="#fcfcfb" stroke-width="2"/><title>gzip level:1 - 123 MB/s, ratio 3.455, cv 0.2%</title></g>
<g stroke="#4a3aa7" stroke-opacity="0.7" stroke-width="1.5"><line x1="463.1" y1="290.5" x2="463.1" y2="288.3"/><line x1="460.1" y1="290.5" x2="466.1" y2="290.5"/><line x1="460.1" y1="288.3" x2="466.1" y2="288.3"/></g>
<g><circle cx="463.1" cy="289.3" r="5.5" fill="#4a3aa7" stroke="#fcfcfb" stroke-width="2"/><title>gzip level:3 - 118 MB/s, ratio 3.996, cv 1.5%</title></g>
<g stroke="#4a3aa7" stroke-opacity="0.7" stroke-width="1.5"><line x1="630.0" y1="327.5" x2="630.0" y2="327.2"/><line x1="627.0" y1="327.5" x2="633.0" y2="327.5"/><line x1="627.0" y1="327.2" x2="633.0" y2="327.2"/></g>
<g><circle cx="630.0" cy="327.4" r="5.5" fill="#4a3aa7" stroke="#fcfcfb" stroke-width="2"/><title>gzip level:6 - 70 MB/s, ratio 4.518, cv 0.2%</title></g>
<g stroke="#4a3aa7" stroke-opacity="0.7" stroke-width="1.5"><line x1="647.6" y1="385.5" x2="647.6" y2="385.3"/><line x1="644.6" y1="385.5" x2="650.6" y2="385.5"/><line x1="644.6" y1="385.3" x2="650.6" y2="385.3"/></g>
<g><circle cx="647.6" cy="385.4" r="5.5" fill="#4a3aa7" stroke="#fcfcfb" stroke-width="2"/><title>gzip level:9 - 32 MB/s, ratio 4.573, cv 0.1%</title></g>
<text x="122.2" y="103.6" font-size="10" fill="#52514e" text-anchor="start" font-weight="normal">L1</text>
<text x="466.7" y="149.7" font-size="10" fill="#52514e" text-anchor="start" font-weight="normal">L3</text>
<text x="598.5" y="154.4" font-size="10" fill="#52514e" text-anchor="start" font-weight="normal">L6</text>
<text x="576.2" y="172.4" font-size="10" fill="#52514e" text-anchor="start" font-weight="normal">L9</text>
<text x="324.2" y="154.5" font-size="10" fill="#52514e" text-anchor="start" font-weight="normal">L1</text>
<text x="496.7" y="180.1" font-size="10" fill="#52514e" text-anchor="start" font-weight="normal">L3</text>
<text x="649.3" y="192.1" font-size="10" fill="#52514e" text-anchor="start" font-weight="normal">L6</text>
<text x="666.0" y="237.8" font-size="10" fill="#52514e" text-anchor="start" font-weight="normal">L9</text>
<text x="296.9" y="116.3" font-size="10" fill="#52514e" text-anchor="start" font-weight="normal">L1</text>
<text x="546.2" y="167.4" font-size="10" fill="#52514e" text-anchor="start" font-weight="normal">L6</text>
<text x="599.1" y="394.4" font-size="10" fill="#52514e" text-anchor="start" font-weight="normal">L9</text>
<text x="313.0" y="170.9" font-size="10" fill="#52514e" text-anchor="start" font-weight="normal">L1</text>
<text x="141.8" y="209.0" font-size="10" fill="#52514e" text-anchor="start" font-weight="normal">L1</text>
<text x="503.4" y="255.8" font-size="10" fill="#52514e" text-anchor="start" font-weight="normal">L3</text>
<text x="648.4" y="277.7" font-size="10" fill="#52514e" text-anchor="start" font-weight="normal">L6</text>
<text x="624.7" y="308.6" font-size="10" fill="#52514e" text-anchor="start" font-weight="normal">L9</text>
<text x="296.9" y="279.4" font-size="10" fill="#52514e" text-anchor="start" font-weight="normal">L1</text>
<text x="470.1" y="282.3" font-size="10" fill="#52514e" text-anchor="start" font-weight="normal">L3</text>
<text x="654.6" y="378.4" font-size="10" fill="#52514e" text-anchor="start" font-weight="normal">L9</text>
<text x="78.0" y="494.0" font-size="12" fill="#0b0b0b" text-anchor="start" font-weight="normal">compress, level 6, by threads</text>
<line x1="78.0" y1="658.6" x2="528.0" y2="658.6" stroke="#e7e6e2" stroke-width="1"/>
<text x="70.0" y="662.6" font-size="9" fill="#52514e" text-anchor="end" font-weight="normal">100 MB/s</text>
<line x1="78.0" y1="611.7" x2="528.0" y2="611.7" stroke="#e7e6e2" stroke-width="1"/>
<text x="70.0" y="615.7" font-size="9" fill="#52514e" text-anchor="end" font-weight="normal">200 MB/s</text>
<line x1="78.0" y1="549.7" x2="528.0" y2="549.7" stroke="#e7e6e2" stroke-width="1"/>
<text x="70.0" y="553.7" font-size="9" fill="#52514e" text-anchor="end" font-weight="normal">500 MB/s</text>
<line x1="78.0" y1="702.0" x2="528.0" y2="702.0" stroke="#52514e" stroke-width="1"/>
<text x="78.0" y="716.0" font-size="10" fill="#52514e" text-anchor="middle" font-weight="normal">1</text>
<text x="190.5" y="716.0" font-size="10" fill="#52514e" text-anchor="middle" font-weight="normal">2</text>
<text x="303.0" y="716.0" font-size="10" fill="#52514e" text-anchor="middle" font-weight="normal">4</text>
<text x="415.5" y="716.0" font-size="10" fill="#52514e" text-anchor="middle" font-weight="normal">8</text>
<text x="528.0" y="716.0" font-size="10" fill="#52514e" text-anchor="middle" font-weight="normal">10</text>
<text x="303.0" y="732.0" font-size="11" fill="#52514e" text-anchor="middle" font-weight="normal">threads</text>
<path d="M78.0,640.8 L190.5,591.5 L303.0,554.3 L415.5,530.8 L528.0,529.8" fill="none" stroke="#2a78d6" stroke-width="2" stroke-opacity="0.7"/>
<g><circle cx="78.0" cy="640.8" r="4" fill="#2a78d6" stroke="#fcfcfb" stroke-width="2"/><title>gzip-ng -p threads:1 - 130 MB/s, cv 0.5%</title></g>
<g><circle cx="190.5" cy="591.5" r="4" fill="#2a78d6" stroke="#fcfcfb" stroke-width="2"/><title>gzip-ng -p threads:2 - 270 MB/s, cv 0.5%</title></g>
<g><circle cx="303.0" cy="554.3" r="4" fill="#2a78d6" stroke="#fcfcfb" stroke-width="2"/><title>gzip-ng -p threads:4 - 467 MB/s, cv 10.5%</title></g>
<g><circle cx="415.5" cy="530.8" r="4" fill="#2a78d6" stroke="#fcfcfb" stroke-width="2"/><title>gzip-ng -p threads:8 - 661 MB/s, cv 5.1%</title></g>
<g><circle cx="528.0" cy="529.8" r="4" fill="#2a78d6" stroke="#fcfcfb" stroke-width="2"/><title>gzip-ng -p threads:10 - 671 MB/s, cv 1.7%</title></g>
<text x="520.0" y="521.8" font-size="9" fill="#52514e" text-anchor="end" font-weight="normal">671 MB/s</text>
<path d="M78.0,684.2 L190.5,638.2 L303.0,599.6 L415.5,571.6 L528.0,564.4" fill="none" stroke="#eb6834" stroke-width="2" stroke-opacity="0.7"/>
<g><circle cx="78.0" cy="684.2" r="4" fill="#eb6834" stroke="#fcfcfb" stroke-width="2"/><title>pigz -p threads:1 - 68 MB/s, cv 0.2%</title></g>
<g><circle cx="190.5" cy="638.2" r="4" fill="#eb6834" stroke="#fcfcfb" stroke-width="2"/><title>pigz -p threads:2 - 135 MB/s, cv 0.3%</title></g>
<g><circle cx="303.0" cy="599.6" r="4" fill="#eb6834" stroke="#fcfcfb" stroke-width="2"/><title>pigz -p threads:4 - 239 MB/s, cv 1.4%</title></g>
<g><circle cx="415.5" cy="571.6" r="4" fill="#eb6834" stroke="#fcfcfb" stroke-width="2"/><title>pigz -p threads:8 - 362 MB/s, cv 2.6%</title></g>
<g><circle cx="528.0" cy="564.4" r="4" fill="#eb6834" stroke="#fcfcfb" stroke-width="2"/><title>pigz -p threads:10 - 403 MB/s, cv 0.2%</title></g>
<text x="520.0" y="556.4" font-size="9" fill="#52514e" text-anchor="end" font-weight="normal">403 MB/s</text>
<path d="M78.0,653.8 L190.5,608.0 L303.0,569.6 L415.5,541.3 L528.0,541.6" fill="none" stroke="#1baf7a" stroke-width="2" stroke-opacity="0.7"/>
<g><circle cx="78.0" cy="653.8" r="4" fill="#1baf7a" stroke="#fcfcfb" stroke-width="2"/><title>bgzip -@ threads:1 - 107 MB/s, cv 0.6%</title></g>
<g><circle cx="190.5" cy="608.0" r="4" fill="#1baf7a" stroke="#fcfcfb" stroke-width="2"/><title>bgzip -@ threads:2 - 211 MB/s, cv 2.6%</title></g>
<g><circle cx="303.0" cy="569.6" r="4" fill="#1baf7a" stroke="#fcfcfb" stroke-width="2"/><title>bgzip -@ threads:4 - 373 MB/s, cv 2.0%</title></g>
<g><circle cx="415.5" cy="541.3" r="4" fill="#1baf7a" stroke="#fcfcfb" stroke-width="2"/><title>bgzip -@ threads:8 - 566 MB/s, cv 5.9%</title></g>
<g><circle cx="528.0" cy="541.6" r="4" fill="#1baf7a" stroke="#fcfcfb" stroke-width="2"/><title>bgzip -@ threads:10 - 563 MB/s, cv 5.2%</title></g>
<text x="520.0" y="533.6" font-size="9" fill="#52514e" text-anchor="end" font-weight="normal">563 MB/s</text>
<text x="572.0" y="494.0" font-size="12" fill="#0b0b0b" text-anchor="start" font-weight="normal">decompress, own output, by threads</text>
<line x1="572.0" y1="678.8" x2="1022.0" y2="678.8" stroke="#e7e6e2" stroke-width="1"/>
<text x="1018.0" y="675.8" font-size="8" fill="#52514e" text-anchor="end" font-weight="normal">1.00 GB/s</text>
<line x1="572.0" y1="625.4" x2="1022.0" y2="625.4" stroke="#e7e6e2" stroke-width="1"/>
<text x="1018.0" y="622.4" font-size="8" fill="#52514e" text-anchor="end" font-weight="normal">2.00 GB/s</text>
<line x1="572.0" y1="554.7" x2="1022.0" y2="554.7" stroke="#e7e6e2" stroke-width="1"/>
<line x1="572.0" y1="702.0" x2="1022.0" y2="702.0" stroke="#52514e" stroke-width="1"/>
<text x="572.0" y="716.0" font-size="10" fill="#52514e" text-anchor="middle" font-weight="normal">1</text>
<text x="684.5" y="716.0" font-size="10" fill="#52514e" text-anchor="middle" font-weight="normal">2</text>
<text x="797.0" y="716.0" font-size="10" fill="#52514e" text-anchor="middle" font-weight="normal">4</text>
<text x="909.5" y="716.0" font-size="10" fill="#52514e" text-anchor="middle" font-weight="normal">8</text>
<text x="1022.0" y="716.0" font-size="10" fill="#52514e" text-anchor="middle" font-weight="normal">10</text>
<text x="797.0" y="732.0" font-size="11" fill="#52514e" text-anchor="middle" font-weight="normal">threads</text>
<path d="M572.0,665.1 L684.5,610.8 L797.0,562.9 L909.5,534.6 L1022.0,532.2" fill="none" stroke="#2a78d6" stroke-width="2" stroke-opacity="0.7"/>
<g><circle cx="572.0" cy="665.1" r="4" fill="#2a78d6" stroke="#fcfcfb" stroke-width="2"/><title>gzip-ng -p threads:1 - 1.20 GB/s, cv 0.6%</title></g>
<g><circle cx="684.5" cy="610.8" r="4" fill="#2a78d6" stroke="#fcfcfb" stroke-width="2"/><title>gzip-ng -p threads:2 - 2.41 GB/s, cv 0.4%</title></g>
<g><circle cx="797.0" cy="562.9" r="4" fill="#2a78d6" stroke="#fcfcfb" stroke-width="2"/><title>gzip-ng -p threads:4 - 4.50 GB/s, cv 4.8%</title></g>
<g><circle cx="909.5" cy="534.6" r="4" fill="#2a78d6" stroke="#fcfcfb" stroke-width="2"/><title>gzip-ng -p threads:8 - 6.49 GB/s, cv 8.7%</title></g>
<g><circle cx="1022.0" cy="532.2" r="4" fill="#2a78d6" stroke="#fcfcfb" stroke-width="2"/><title>gzip-ng -p threads:10 - 6.69 GB/s, cv 23.3%</title></g>
<text x="1014.0" y="524.2" font-size="9" fill="#52514e" text-anchor="end" font-weight="normal">6.69 GB/s</text>
<path d="M572.0,681.8 L684.5,626.7 L797.0,595.2 L909.5,563.1 L1022.0,552.8" fill="none" stroke="#1baf7a" stroke-width="2" stroke-opacity="0.7"/>
<g><circle cx="572.0" cy="681.8" r="4" fill="#1baf7a" stroke="#fcfcfb" stroke-width="2"/><title>bgzip -@ threads:1 - 963 MB/s, cv 0.9%</title></g>
<g><circle cx="684.5" cy="626.7" r="4" fill="#1baf7a" stroke="#fcfcfb" stroke-width="2"/><title>bgzip -@ threads:2 - 1.97 GB/s, cv 0.4%</title></g>
<g><circle cx="797.0" cy="595.2" r="4" fill="#1baf7a" stroke="#fcfcfb" stroke-width="2"/><title>bgzip -@ threads:4 - 2.96 GB/s, cv 15.6%</title></g>
<g><circle cx="909.5" cy="563.1" r="4" fill="#1baf7a" stroke="#fcfcfb" stroke-width="2"/><title>bgzip -@ threads:8 - 4.49 GB/s, cv 16.0%</title></g>
<g><circle cx="1022.0" cy="552.8" r="4" fill="#1baf7a" stroke="#fcfcfb" stroke-width="2"/><title>bgzip -@ threads:10 - 5.12 GB/s, cv 9.5%</title></g>
<text x="1014.0" y="544.8" font-size="9" fill="#52514e" text-anchor="end" font-weight="normal">5.12 GB/s</text>
<g opacity="0.35"><line x1="1044.0" y1="604.0" x2="1044.0" y2="548.0" stroke="#52514e" stroke-width="2"/><polygon points="1044.0,542.0 1048.0,551.0 1040.0,551.0" fill="#52514e"/><text x="1044.0" y="566.0" font-size="11" fill="#52514e" text-anchor="middle" transform="rotate(-90.0 1044.0 573.0)">better</text></g>
<text x="16.0" y="778.0" font-size="10" fill="#52514e" text-anchor="start" font-weight="normal">gzip-ng 2.0.0 (zlib-ng 2.3.90) · pigz 2.8 · gzip 1.14 · minigzip · bgzip (htslib) 1.24 · MiGz 2.0.beta-1 on openjdk version "26.0.2.1" 2026-08-18</text>
<text x="16.0" y="792.0" font-size="10" fill="#52514e" text-anchor="start" font-weight="normal">Apple M5, 10 cpus, synthetic mixed 256 MiB (256 MiB), Nathans-MacBook-Air-M5-2.local, 2026-09-04</text>
<text x="16.0" y="762.0" font-size="10" fill="#c98500" text-anchor="start" font-weight="normal">⚠</text>
<text x="30.0" y="762.0" font-size="10" fill="#52514e" text-anchor="start" font-weight="normal">25 benchmarks with cv above 3%</text>
<a href="https://github.com/nmoinvaz/gzipbench"><text x="1064" y="792" font-size="10" fill="#52514e" text-anchor="end" text-decoration="underline">github.com/nmoinvaz/gzipbench</text></a>
</svg>
